<?xml version="1.0" encoding="UTF-8" standalone="no"?>
<svg
   height="84"
   width="84"
   version="1.1"
   id="svg1"
   sodipodi:docname="icon-foreground.svg"
   inkscape:version="1.3.2 (091e20e, 2023-11-25, custom)"
   xmlns:inkscape="http://www.inkscape.org/namespaces/inkscape"
   xmlns:sodipodi="http://sodipodi.sourceforge.net/DTD/sodipodi-0.dtd"
   xmlns="http://www.w3.org/2000/svg"
   xmlns:svg="http://www.w3.org/2000/svg">
  <defs
     id="defs1" />
  <sodipodi:namedview
     id="namedview1"
     pagecolor="#ffffff"
     bordercolor="#000000"
     borderopacity="0.25"
     inkscape:showpageshadow="2"
     inkscape:pageopacity="0.0"
     inkscape:pagecheckerboard="0"
     inkscape:deskcolor="#d1d1d1"
     inkscape:zoom="12.562194"
     inkscape:cx="48.478794"
     inkscape:cy="43.105528"
     inkscape:window-width="2560"
     inkscape:window-height="1351"
     inkscape:window-x="2551"
     inkscape:window-y="-9"
     inkscape:window-maximized="1"
     inkscape:current-layer="svg1" />
  <path
     d="m 37.734203,46.694033 c -0.658074,1.44417 -1.899485,2.301255 -3.313261,2.641625 -8.793647,1.996469 -10.751407,-11.171309 -4.447766,-14.587926 4.388132,-1.82305 6.982696,0.21553 7.76474,1.752851 V 34.43946 h 2.346816 C 40.172757,50.566645 42.949877,56.915373 26.294258,56.83751 17.949258,53.949652 12.299095,48.388171 12.3,42.002742 12.3014,32.647991 24.429996,25.066486 39.390112,25.069124 c 9.767899,0.0014 18.31104,3.408959 23.075437,8.258127 -4.365179,-2.894038 -10.929558,-4.561516 -18.250884,-4.561516 -13.142377,0 -23.79641,5.928551 -23.79641,13.2419 0,4.585079 4.202903,8.630417 10.566199,11.007195 4.984452,1.579135 7.072171,-1.419285 6.749749,-6.320797 z m 24.678275,4.041782 c -6.613108,4.145016 -15.430805,5.020827 -22.883546,4.256476 -1.419356,1.288294 -3.954676,2.758833 -7.407449,3.336166 12.314271,1.992714 23.587698,-1.065035 30.290995,-7.592642 z M 54.50923,37.468322 h 4.435794 V 34.43946 H 46.53792 v 3.028862 h 4.435716 v 11.884243 l 3.535594,0.0085 z m 9.811628,5.823831 h 6.459354 V 40.263368 H 64.320858 V 37.468322 H 71.7 V 34.43946 H 60.785123 v 14.930091 l 3.535735,0.0085 z m -22.179288,6.043434 2.462745,0.0085 V 30.717548 H 42.14157 Z m -4.519421,-7.577008 c 0,-4.350611 -3.662915,-7.084503 -6.577418,-4.909205 -2.914504,2.175306 -2.914504,7.643097 0,9.818403 2.914503,2.175299 6.577418,-0.558593 6.577418,-4.909198"
     id="path1"
     style="stroke-width:0.116015;fill:#ffffff;fill-opacity:1" />
</svg>
