<?xml version="1.0" encoding="utf-8"?>
<!-- Generator: Adobe Illustrator 24.0.0, SVG Export Plug-In . SVG Version: 6.00 Build 0)  -->
<svg version="1.1" id="Layer_1" xmlns="http://www.w3.org/2000/svg" xmlns:xlink="http://www.w3.org/1999/xlink" x="0px" y="0px"
	 viewBox="0 0 246 150" style="enable-background:new 0 0 246 150;" xml:space="preserve">
<style type="text/css">
	.st0{fill:#75FBFD;}
</style>
<title>label</title>
<path class="st0" d="M126,45h-6V34h6V45z M126,17h-6V0h6V17z"/>
<path class="st0" d="M126,150h-6v-17h6V150z M126,116h-6v-11h6V116z"/>
<g>
	<path class="st0" d="M59.3,55.4h8.3v37.5h-8.3V55.4z"/>
	<path class="st0" d="M75.4,55.4h25.2V63H83.6v7.6h15.6v7.6H83.6v14.6h-8.3V55.4z"/>
	<path class="st0" d="M117.3,62.7h-10.7v-7.3h29.7v7.3h-10.7v30.2h-8.3V62.7z"/>
	<path class="st0" d="M151.3,62.7h-10.7v-7.3h29.7v7.3h-10.7v30.2h-8.3V62.7z"/>
	<path class="st0" d="M185.3,62.7h-10.7v-7.3h29.6v7.3h-10.7v30.2h-8.3V62.7z"/>
</g>
</svg>
