<?xml version="1.0" encoding="utf-8"?>
<!-- Generator: Adobe Illustrator 27.5.0, SVG Export Plug-In . SVG Version: 6.00 Build 0)  -->
<svg version="1.1" id="Layer_1" xmlns="http://www.w3.org/2000/svg" xmlns:xlink="http://www.w3.org/1999/xlink" x="0px" y="0px"
	 viewBox="0 0 256 256" style="enable-background:new 0 0 256 256;" xml:space="preserve">
<style type="text/css">
	.st0{fill:#737372;}
	.st1{fill:#FFFFFF;}
</style>
<g id="Layer_2_00000007411795498709025980000015558421015306866591_">
	<path class="st0" d="M216,256H40c-22.1,0-40-17.9-40-40V40C0,17.9,17.9,0,40,0h176c22.1,0,40,17.9,40,40v176
		C256,238.1,238.1,256,216,256z"/>
</g>
<g id="Layer_1_00000083780798932974199530000002610590731641706937_">
	<g transform="scale(1.6 1.6) translate(27.000000, 27.000000)">
		<path class="st1" d="M69.5,71.5H45.3c-0.8,0-1.5-0.5-1.8-1.2s-0.1-1.6,0.4-2.2l24.3-24.3c0.6-0.6,1.4-0.7,2.2-0.4
			c0.7,0.3,1.2,1,1.2,1.8v24.3C71.5,70.6,70.6,71.5,69.5,71.5z M50.1,67.5h17.4V50.1L50.1,67.5z"/>
		<path class="st1" d="M88.8,0.2C88-0.2,87.2,0,86.6,0.6l-86,86C0,87.2-0.2,88,0.2,88.8C0.5,89.5,1.2,90,2,90h86c1.1,0,2-0.9,2-2V2
			C90,1.2,89.5,0.5,88.8,0.2z M86,86H6.8l11.8-11.8l3.1,3.1c0.4,0.4,0.9,0.6,1.4,0.6s1-0.2,1.4-0.6c0.8-0.8,0.8-2,0-2.8l-3.1-3.1
			L31.8,61l3.1,3.1c0.4,0.4,0.9,0.6,1.4,0.6s1-0.2,1.4-0.6c0.8-0.8,0.8-2,0-2.8l-3.1-3.1L45,47.8l3.1,3.1c0.4,0.4,0.9,0.6,1.4,0.6
			s1-0.2,1.4-0.6c0.8-0.8,0.8-2,0-2.8L47.8,45l10.4-10.4l3.1,3.1c0.4,0.4,0.9,0.6,1.4,0.6s1-0.2,1.4-0.6c0.8-0.8,0.8-2,0-2.8
			L61,31.8l10.4-10.4l3.1,3.1c0.4,0.4,0.9,0.6,1.4,0.6s1-0.2,1.4-0.6c0.8-0.8,0.8-2,0-2.8l-3.1-3.1L86,6.8V86z"/>
	</g>
</g>
</svg>
