<svg xmlns="http://www.w3.org/2000/svg" viewBox="0 0 1098.6 383.15">
  <defs>
    <style>
      .cls-1, .cls-3 {
        opacity: 0.5;
      }

      .cls-2, .cls-4 {
        fill: none;
        stroke-miterlimit: 10;
        stroke-width: 8px;
      }

      .cls-2 {
        stroke: #000;
      }

      .cls-3 {
        fill: aqua;
      }

      .cls-4 {
        stroke: aqua;
      }
    </style>
  </defs>
  <g id="UI">
    <polygon class="cls-1" points="820.84 215.43 792.64 215.43 752.24 282.57 780.43 282.57 820.84 215.43"/>
    <polyline class="cls-2" points="792.64 217.04 752.24 282.57 780.43 282.57 820.84 217.04"/>
    <polygon class="cls-3" points="950.84 100.44 988.67 157.93 950.84 215.43 924.44 215.43 962.28 157.93 924.44 100.44 950.84 100.44"/>
    <polygon class="cls-1" points="732.05 282.57 346.88 282.57 346.88 252.96 346.88 217.04 771.77 217.04 732.05 282.57"/>
    <polygon class="cls-3" points="890.78 215.43 347.88 215.43 347.88 100.44 890.78 100.44 930.5 157.93 890.78 215.43"/>
    <polyline class="cls-2" points="772.77 217.04 733.05 282.57 347.88 282.57 347.88 252.96 347.88 217.04"/>
    <polygon class="cls-4" points="890.78 215.43 347.88 215.43 347.88 100.44 890.78 100.44 930.5 157.93 890.78 215.43"/>
    <polygon class="cls-4" points="950.84 100.44 988.67 157.93 950.84 215.43 924.44 215.43 962.28 157.93 924.44 100.44 950.84 100.44"/>
  </g>
</svg>
