<svg xmlns="http://www.w3.org/2000/svg" viewBox="0 0 383.15 383.15">
  <defs>
    <style>
      .cls-1 {
        fill: teal;
      }

      .cls-2 {
        fill: aqua;
      }
    </style>
  </defs>
  <g id="UI">
    <g>
      <polygon class="cls-1" points="162.82 301.57 208.31 301.57 249.67 213.59 133.82 152.56 228.79 98.09 223.31 95.16 103.95 153.48 213.16 214.17 162.82 301.57"/>
      <polygon class="cls-1" points="220.19 94.62 211.82 88.81 246.34 81.68 238.49 105.44 229.21 99.44 220.19 94.62"/>
    </g>
    <g>
      <polygon class="cls-2" points="162.82 291.57 208.31 291.57 249.67 203.59 133.82 142.56 229.08 91.72 223.59 88.79 103.95 143.48 213.16 204.17 162.82 291.57"/>
      <polygon class="cls-2" points="220.19 89.85 211.82 84.04 246.34 76.91 238.49 100.67 229.21 94.67 220.19 89.85"/>
    </g>
  </g>
</svg>
