<?xml version="1.0" encoding="utf-8"?>
<!-- Generator: Adobe Illustrator 25.3.1, SVG Export Plug-In . SVG Version: 6.00 Build 0)  -->
<svg version="1.1" id="Layer_1" xmlns="http://www.w3.org/2000/svg" xmlns:xlink="http://www.w3.org/1999/xlink" x="0px" y="0px"
	 viewBox="0 0 283.5 283.5" style="enable-background:new 0 0 283.5 283.5;" xml:space="preserve">
<style type="text/css">
	.st0{opacity:0.25;fill:#00FF78;enable-background:new    ;}
	.st1{fill:none;stroke:#75FBFD;stroke-width:9;stroke-miterlimit:10;}
	.st2{fill:#75FBFD;}
	.st3{fill:#00FFFF;}
	.st4{fill:none;stroke:#00FF78;stroke-width:14;stroke-miterlimit:10;}
	.st5{opacity:0.25;fill:none;stroke:#00FF78;stroke-width:14;stroke-miterlimit:10;enable-background:new    ;}
	.st6{opacity:0.5;fill:none;stroke:#00FFFF;stroke-width:46;stroke-miterlimit:10;enable-background:new    ;}
</style>
<rect x="27.6" y="26.1" class="st0" width="228.2" height="228.2"/>
<g>
	<line class="st1" x1="177.5" y1="212.2" x2="177.5" y2="177.1"/>
	<polygon class="st2" points="191.9,181.3 177.5,156.5 163.2,181.3 	"/>
</g>
<g>
	<line class="st1" x1="209.4" y1="212.2" x2="209.4" y2="177.1"/>
	<polygon class="st2" points="223.8,181.3 209.4,156.5 195.1,181.3 	"/>
</g>
<rect x="165.8" y="218" class="st2" width="54.7" height="10.8"/>
<g>
	<path class="st3" d="M81.3,191v36.8h-2.2c0-0.1,0-0.1,0-0.2v-36.4c0-0.1,0-0.1,0-0.2L81.3,191z"/>
	<path class="st3" d="M111.9,191c0,0.1,0,0.2,0,0.3v39.3h-2.2v-39.4c0-0.1,0-0.2,0-0.2L111.9,191z"/>
	<path class="st3" d="M104.5,191c0,0.1,0,0.2,0,0.3c0,12,0,24.1,0,36.1v0.3h-6.8v-36.4c0-0.1,0-0.2,0-0.3L104.5,191z"/>
	<path class="st3" d="M108.5,191v36.8h-1.7v-36.4c0-0.1,0-0.2,0-0.4L108.5,191z"/>
	<path class="st3" d="M68.8,191v39.6h-1.1v-39.3c0-0.1,0-0.2,0-0.3L68.8,191z"/>
	<path class="st3" d="M76.3,191c0,0.1,0,0.2,0,0.3v36.4h-1.1V191H76.3z"/>
	<path class="st3" d="M89.5,191c0,0.1,0,0.2-0.1,0.3v36.4h-2.3c0-0.1,0-0.2,0-0.2v-36.5c0,0,0-0.1,0-0.1L89.5,191z"/>
	<path class="st3" d="M95.9,191c0,0.1,0,0.2,0,0.3c0,12.1,0,24.1,0,36.2v0.3H92v-36.6c0-0.1,0-0.2,0.1-0.2L95.9,191z"/>
	<path class="st3" d="M74,191c0,0.1,0,0.2,0,0.3c0,12.1,0,24.1,0,36.2v0.3h-3.8c0-0.1,0-0.2,0-0.2v-36.4c0-0.1,0-0.1,0-0.2L74,191z"
		/>
	<path class="st3" d="M63.8,191c0,0.1,0,0.2,0,0.3v39.2H63c0-0.1,0-0.1,0-0.2v-39.2c0-0.1,0-0.1,0-0.1L63.8,191z"/>
	<path class="st3" d="M114.4,191c0,0.1,0,0.2,0,0.3v39.3H113v-39.3c0-0.1,0-0.2,0-0.3L114.4,191z"/>
	<path class="st3" d="M85.6,191v36.8h-1.3v-36.5c0-0.1,0-0.2,0-0.3L85.6,191z"/>
	<path class="st3" d="M65.8,191c0,0.1,0,0.2,0,0.3v39.3h-1.2v-39.3c0-0.1,0-0.2,0-0.3L65.8,191z"/>
</g>
<rect x="27.6" y="26.1" class="st4" width="228.2" height="228.2"/>
<rect x="39.6" y="37.3" class="st5" width="204.3" height="205.1"/>
<line class="st6" x1="141.7" y1="26.1" x2="141.7" y2="75.9"/>
</svg>
