<svg xmlns="http://www.w3.org/2000/svg" viewBox="0 0 1098.6 383.15">
  <defs>
    <style>
      .cls-1, .cls-2 {
        opacity: 0.5;
      }

      .cls-2, .cls-5 {
        fill: aqua;
      }

      .cls-3, .cls-4 {
        fill: none;
        stroke-miterlimit: 10;
        stroke-width: 8px;
      }

      .cls-3 {
        stroke: #000;
      }

      .cls-4 {
        stroke: aqua;
      }
    </style>
  </defs>
  <g id="UI">
    <polygon class="cls-1" points="820.84 215.43 792.64 215.43 752.24 282.57 780.43 282.57 820.84 215.43"/>
    <polygon class="cls-2" points="950.84 100.44 988.67 157.93 950.84 215.43 924.44 215.43 962.28 157.93 924.44 100.44 950.84 100.44"/>
    <polygon class="cls-1" points="732.05 282.57 346.88 282.57 346.88 252.96 346.88 217.04 771.77 217.04 732.05 282.57"/>
    <polygon class="cls-2" points="890.78 215.43 347.88 215.43 347.88 100.44 890.78 100.44 930.5 157.93 890.78 215.43"/>
    <polyline class="cls-3" points="772.77 217.04 733.05 282.57 347.88 282.57 347.88 252.96 347.88 217.04"/>
    <polyline class="cls-3" points="792.64 217.04 752.24 282.57 780.43 282.57 820.84 217.04"/>
    <polygon class="cls-4" points="890.78 215.43 347.88 215.43 347.88 100.44 890.78 100.44 930.5 157.93 890.78 215.43"/>
    <polygon class="cls-4" points="950.84 100.44 988.67 157.93 950.84 215.43 924.44 215.43 962.28 157.93 924.44 100.44 950.84 100.44"/>
    <g>
      <path d="M387.67,136.61a65.27,65.27,0,0,1,10.68-.83c5.51,0,9.54,1.28,12.1,3.59a11.57,11.57,0,0,1,3.78,9,12.72,12.72,0,0,1-3.33,9.21c-2.95,3.14-7.75,4.74-13.19,4.74a19.2,19.2,0,0,1-4.48-.38v17.27h-5.56Zm5.56,20.8a18.73,18.73,0,0,0,4.61.45c6.72,0,10.82-3.26,10.82-9.22,0-5.69-4-8.44-10.18-8.44a23.9,23.9,0,0,0-5.25.44Z"/>
      <path d="M421.71,136.1h5.57v38.46h18.43v4.67h-24Z"/>
      <path d="M458.9,165.67l-4.48,13.56h-5.76l14.65-43.13H470l14.72,43.13H478.8l-4.61-13.56ZM473,161.32l-4.22-12.42c-1-2.82-1.6-5.38-2.24-7.87h-.13c-.64,2.56-1.35,5.18-2.18,7.81l-4.22,12.48Z"/>
      <path d="M520.27,177.83c-2,1-6.14,2-11.39,2-12.16,0-21.31-7.68-21.31-21.82,0-13.5,9.15-22.65,22.53-22.65,5.37,0,8.76,1.15,10.24,1.92L519,141.86a20.33,20.33,0,0,0-8.7-1.79c-10.11,0-16.83,6.46-16.83,17.79,0,10.56,6.08,17.34,16.57,17.34a22.27,22.27,0,0,0,9.09-1.79Z"/>
      <path d="M549.58,159H532.82v15.55H551.5v4.67H527.25V136.1h23.29v4.67H532.82V154.4h16.76Z"/>
      <path d="M558,172.45a19.66,19.66,0,0,0,10,2.82c5.7,0,9-3,9-7.36,0-4-2.31-6.34-8.13-8.58-7-2.49-11.39-6.14-11.39-12.22,0-6.72,5.56-11.71,13.95-11.71a19.57,19.57,0,0,1,9.53,2.11l-1.53,4.54a17.28,17.28,0,0,0-8.19-2.05c-5.89,0-8.13,3.52-8.13,6.47,0,4,2.62,6,8.57,8.32,7.3,2.81,11,6.33,11,12.67,0,6.65-4.93,12.41-15.1,12.41-4.16,0-8.71-1.21-11-2.75Z"/>
      <path d="M609.42,140.84H596.3V136.1h31.94v4.74H615.06v38.39h-5.64Z"/>
      <path d="M668.17,157.22c0,14.85-9,22.72-20,22.72-11.39,0-19.39-8.83-19.39-21.89,0-13.69,8.51-22.65,20-22.65C660.56,135.4,668.17,144.42,668.17,157.22Zm-33.47.7c0,9.22,5,17.47,13.76,17.47s13.83-8.12,13.83-17.91c0-8.58-4.48-17.54-13.76-17.54S634.7,148.45,634.7,157.92Z"/>
      <path d="M721.81,177.31a40.13,40.13,0,0,1-13.25,2.37c-6.53,0-11.9-1.66-16.13-5.69-3.71-3.59-6-9.35-6-16.07.06-12.86,8.89-22.27,23.35-22.27a26.61,26.61,0,0,1,10.76,2l-1.35,4.54a22.39,22.39,0,0,0-9.53-1.85c-10.5,0-17.35,6.52-17.35,17.34s6.59,17.4,16.64,17.4c3.65,0,6.15-.51,7.43-1.15V161.06H707.6v-4.48h14.21Z"/>
      <path d="M767.18,157.22c0,14.85-9,22.72-20,22.72-11.39,0-19.39-8.83-19.39-21.89,0-13.69,8.51-22.65,20-22.65C759.57,135.4,767.18,144.42,767.18,157.22Zm-33.47.7c0,9.22,5,17.47,13.76,17.47s13.82-8.12,13.82-17.91c0-8.58-4.48-17.54-13.76-17.54S733.71,148.45,733.71,157.92Z"/>
    </g>
    <g>
      <path class="cls-5" d="M378.67,261.2a10.51,10.51,0,0,0,5.18,1.48c4.07,0,5.33-2.6,5.29-4.54,0-3.27-3-4.68-6.05-4.68h-1.76v-2.37h1.76c2.31,0,5.22-1.19,5.22-4,0-1.88-1.19-3.53-4.1-3.53a8.61,8.61,0,0,0-4.68,1.55l-.83-2.31a11.14,11.14,0,0,1,6.12-1.8c4.61,0,6.7,2.74,6.7,5.58,0,2.41-1.44,4.47-4.32,5.51v.07a6.1,6.1,0,0,1,5.22,6c0,3.75-2.92,7-8.53,7a12,12,0,0,1-6.09-1.58Z"/>
      <path class="cls-5" d="M405.12,240.86a36.85,36.85,0,0,1,6-.46c3.09,0,5.36.72,6.8,2a6.53,6.53,0,0,1,2.12,5.08,7.12,7.12,0,0,1-1.87,5.18c-1.65,1.76-4.35,2.66-7.41,2.66a10.78,10.78,0,0,1-2.52-.21v9.72h-3.14Zm3.14,11.7a10.44,10.44,0,0,0,2.59.25c3.78,0,6.08-1.83,6.08-5.18,0-3.2-2.27-4.75-5.72-4.75a13.39,13.39,0,0,0-2.95.25Z"/>
      <path class="cls-5" d="M445,252.45c0,8.35-5.08,12.78-11.27,12.78-6.4,0-10.9-5-10.9-12.31,0-7.7,4.78-12.74,11.26-12.74S445,245.25,445,252.45Zm-18.83.4c0,5.18,2.81,9.83,7.74,9.83s7.78-4.57,7.78-10.08c0-4.83-2.52-9.86-7.74-9.86S426.18,247.52,426.18,252.85Z"/>
      <path class="cls-5" d="M452.21,240.58v24.26h-3.13V240.58Z"/>
      <path class="cls-5" d="M457.68,264.84V240.58h3.42l7.78,12.27a68.24,68.24,0,0,1,4.35,7.88l.08,0c-.29-3.24-.36-6.19-.36-10V240.58h2.95v24.26h-3.17L465,252.53a79.38,79.38,0,0,1-4.54-8.1l-.11,0c.18,3.06.26,6,.26,10v10.37Z"/>
      <path class="cls-5" d="M486,243.24H478.6v-2.66h18v2.66h-7.41v21.6H486Z"/>
      <path class="cls-5" d="M498.62,261a11.1,11.1,0,0,0,5.61,1.58c3.2,0,5.08-1.69,5.08-4.14,0-2.26-1.3-3.56-4.57-4.82-4-1.4-6.41-3.45-6.41-6.87,0-3.78,3.13-6.59,7.85-6.59a11,11,0,0,1,5.36,1.19l-.87,2.55a9.67,9.67,0,0,0-4.6-1.15c-3.31,0-4.57,2-4.57,3.64,0,2.26,1.47,3.38,4.82,4.68,4.1,1.58,6.19,3.56,6.19,7.12,0,3.75-2.77,7-8.49,7a12.63,12.63,0,0,1-6.2-1.55Z"/>
      <path class="cls-5" d="M545.16,252.45c0,8.35-5.07,12.78-11.27,12.78-6.4,0-10.9-5-10.9-12.31,0-7.7,4.79-12.74,11.26-12.74C540.88,240.18,545.16,245.25,545.16,252.45Zm-18.82.4c0,5.18,2.8,9.83,7.73,9.83s7.78-4.57,7.78-10.08c0-4.83-2.52-9.86-7.74-9.86S526.34,247.52,526.34,252.85Z"/>
      <path class="cls-5" d="M549.23,240.58H562.3v2.62h-9.94v8.07h9.18v2.59h-9.18v11h-3.13Z"/>
      <path class="cls-5" d="M577.53,240.58v24.26H574.4V240.58Z"/>
      <path class="cls-5" d="M583,264.84V240.58h3.42l7.77,12.27a68.42,68.42,0,0,1,4.36,7.88l.07,0c-.29-3.24-.36-6.19-.36-10V240.58h3v24.26h-3.16l-7.71-12.31a77.38,77.38,0,0,1-4.53-8.1l-.11,0c.18,3.06.25,6,.25,10v10.37Z"/>
      <path class="cls-5" d="M611.29,243.24h-7.38v-2.66h18v2.66h-7.42v21.6h-3.17Z"/>
      <path class="cls-5" d="M637.14,253.46h-9.43v8.75h10.51v2.63H624.58V240.58h13.1v2.62h-10v7.67h9.43Z"/>
      <path class="cls-5" d="M642.29,240.9a33,33,0,0,1,6-.5c3.35,0,5.51.61,7,2a6.08,6.08,0,0,1,1.91,4.61,6.36,6.36,0,0,1-4.57,6.19v.11c1.87.65,3,2.38,3.56,4.9a39.11,39.11,0,0,0,1.87,6.66h-3.24a32.85,32.85,0,0,1-1.62-5.8c-.72-3.35-2-4.61-4.86-4.71h-3v10.51h-3.13Zm3.13,11h3.21c3.34,0,5.47-1.84,5.47-4.61,0-3.13-2.27-4.5-5.58-4.53a12.63,12.63,0,0,0-3.1.29Z"/>
      <path class="cls-5" d="M674.22,253.46h-9.43v8.75H675.3v2.63H661.66V240.58h13.1v2.62h-10v7.67h9.43Z"/>
      <path class="cls-5" d="M678.94,261a11.1,11.1,0,0,0,5.61,1.58c3.21,0,5.08-1.69,5.08-4.14,0-2.26-1.3-3.56-4.57-4.82-4-1.4-6.41-3.45-6.41-6.87,0-3.78,3.13-6.59,7.85-6.59a11,11,0,0,1,5.36,1.19l-.86,2.55a9.75,9.75,0,0,0-4.61-1.15c-3.31,0-4.57,2-4.57,3.64,0,2.26,1.47,3.38,4.82,4.68,4.1,1.58,6.19,3.56,6.19,7.12,0,3.75-2.77,7-8.49,7a12.56,12.56,0,0,1-6.19-1.55Z"/>
      <path class="cls-5" d="M701.72,243.24h-7.37v-2.66h18v2.66h-7.42v21.6h-3.17Z"/>
    </g>
  </g>
</svg>
