<?xml version="1.0" encoding="UTF-8"?><svg id="e" xmlns="http://www.w3.org/2000/svg" viewBox="0 0 150 150"><path d="M122.59,50.58l-15.01,6.6v-7.6c0-3.08-2.52-5.58-5.64-5.58H29.31c-3.11,0-5.64,2.5-5.64,5.58v49.15c0,3.08,2.52,5.58,5.64,5.58H101.94c3.11,0,5.64-2.5,5.64-5.58v-7.87l14.97,6.85c1.37,.62,3.45,.09,3.45-.88V51.48c0-.96-2.04-1.5-3.41-.89Z" fill="none" stroke="#fff" stroke-miterlimit="10" stroke-width="4"/><path d="M79.44,82.59l-7.19,6.73v-9.52s-3.02-.04-4.56-.04c-8.97,0-16.88,4.54-21.6,11.39,2.07-13.28,12.76-23.55,26.16-25.02v-9.09l10.43,9.74,6.85,6.37-10.09,9.44Z" fill="#fff" stroke="#fff" stroke-miterlimit="10"/></svg>