<?xml version="1.0" encoding="UTF-8"?>
<svg width="100px" height="100px" viewBox="0 0 100 100" version="1.1" xmlns="http://www.w3.org/2000/svg" xmlns:xlink="http://www.w3.org/1999/xlink">
    <title>Artboard</title>
    <g id="Artboard" stroke="none" stroke-width="1" fill="none" fill-rule="evenodd">
        <rect id="Rectangle" fill-opacity="0.9" fill="#000000" x="0" y="0" width="100" height="100" rx="20"></rect>
        <g id="add-video-tool-icon" transform="translate(21.000000, 35.000000)" stroke="#FFFFFF">
            <path d="M39.6,30.5 C42.9,30.5 45.7,27.4 45.7,23.7 L45.7,6.8 C45.7,3.1 43,-3.55271368e-15 39.6,-3.55271368e-15 L6.1,-3.55271368e-15 C2.7,-3.55271368e-15 3.55271368e-15,3.1 3.55271368e-15,6.8 L3.55271368e-15,23.7 C3.55271368e-15,27.4 2.8,30.5 6.1,30.5 L39.6,30.5 L39.6,30.5 Z" id="Path" stroke-width="4"></path>
            <polyline id="Path" stroke-width="3" points="44.9 21.7 58.3 25.5 58.3 5.1 44.9 8.9"></polyline>
        </g>
    </g>
</svg>