<svg xmlns="http://www.w3.org/2000/svg" viewBox="0 0 383.15 383.15">
  <defs>
    <style>
      .cls-1 {
        fill: none;
      }

      .cls-2 {
        fill: #96f592;
      }

      .cls-3 {
        fill: #d751ed;
      }

      .cls-4 {
        fill: #e08444;
      }

      .cls-5 {
        fill: #6136ea;
      }

      .cls-6 {
        fill: #fefb73;
      }

      .cls-7 {
        fill: #d9456f;
      }
    </style>
  </defs>
  <g id="UI">
    <polygon class="cls-1" points="251.78 45.84 233.84 45.84 191.58 21.44 149.32 45.84 131.38 45.84 191.58 11.08 251.78 45.84"/>
    <polygon class="cls-2" points="233.84 52.86 149.32 52.86 191.58 28.46 233.84 52.86"/>
    <path class="cls-1" d="M96.72,65.85,45.4,95.48A11.89,11.89,0,0,1,44.07,90V77.85a12,12,0,0,1,12-12Z"/>
    <path class="cls-1" d="M114.66,65.85l-61.82,35.7a12.08,12.08,0,0,1-7.44-6.07L96.72,65.85Z"/>
    <path class="cls-3" d="M197.47,77.85V90a12,12,0,0,1-12,12H68.07a11.89,11.89,0,0,1-3.23-.45l61.82-35.7h58.81A12,12,0,0,1,197.47,77.85Z"/>
    <rect class="cls-4" x="60.01" y="119.34" width="173.69" height="36.15" rx="12"/>
    <rect class="cls-5" x="151.9" y="172.84" width="115.11" height="36.15" rx="12"/>
    <rect class="cls-6" x="209.45" y="226.33" width="90.87" height="36.15" rx="12"/>
    <path class="cls-1" d="M367.73,291.82V304a12,12,0,0,1-12,12h-67l59.15-34.15v-2h7.84A12,12,0,0,1,367.73,291.82Z"/>
    <path class="cls-7" d="M322.41,279.82,259.8,316H247.46a12,12,0,0,1-12-12V291.82a12,12,0,0,1,12-12Z"/>
  </g>
</svg>
