<svg xmlns="http://www.w3.org/2000/svg" viewBox="0 0 439.3 439.3"><defs><style>.cls-1,.cls-2,.cls-3{fill:#75fbfd;}.cls-1,.cls-2{stroke:#75fbfd;}.cls-1,.cls-3{stroke-miterlimit:10;}.cls-2{stroke-linecap:round;stroke-linejoin:round;stroke-width:8px;}.cls-3{stroke:#000;stroke-width:3px;}</style></defs><g id="UI"><path class="cls-1" d="M219.66,147.49a1.34,1.34,0,0,1-1.33-1.33h0V79.28a1.34,1.34,0,1,1,2.67-.23.88.88,0,0,1,0,.23v66.87A1.34,1.34,0,0,1,219.66,147.49Z"/><path class="cls-1" d="M219.66,361.48a1.34,1.34,0,0,1-1.33-1.33h0V293.27A1.34,1.34,0,0,1,221,293a.88.88,0,0,1,0,.23v66.87A1.34,1.34,0,0,1,219.66,361.48Z"/><path class="cls-1" d="M146.1,221.05H79.22a1.34,1.34,0,0,1,0-2.68H146.1a1.34,1.34,0,0,1,0,2.68Z"/><path class="cls-1" d="M360.08,221.05H293.21a1.34,1.34,0,1,1,0-2.68h66.87a1.34,1.34,0,1,1,0,2.68Z"/><line class="cls-2" x1="219.65" y1="156.51" x2="219.65" y2="174.98"/><line class="cls-2" x1="219.65" y1="264.44" x2="219.65" y2="282.91"/><line class="cls-2" x1="174.92" y1="219.71" x2="156.46" y2="219.71"/><circle class="cls-3" cx="219.65" cy="219.71" r="16.31"/><path class="cls-1" d="M286.85,219.71a4,4,0,0,1-4,4H264.39a4,4,0,0,1,0-8h18.46A4,4,0,0,1,286.85,219.71Z"/></g></svg>