<?xml version="1.0" encoding="UTF-8"?>
<svg id="e" xmlns="http://www.w3.org/2000/svg" viewBox="0 0 100 100">
    <path d="M81.8,34.35l-9.96,4.38v-5.04c0-2.05-1.67-3.7-3.74-3.7H19.91c-2.06,0-3.74,1.66-3.74,3.7v32.61c0,2.05,1.67,3.7,3.74,3.7h48.2c2.06,0,3.74-1.66,3.74-3.7v-5.22l9.94,4.55c.91,.41,2.29,.06,2.29-.58v-30.1c0-.64-1.35-.99-2.27-.59Z"
          fill="none" stroke="#fff" stroke-miterlimit="10" stroke-width="3"/>
    <path d="M53.17,55.58l-4.77,4.46v-6.32s-2.01-.03-3.03-.03c-5.95,0-11.2,3.02-14.33,7.56,1.37-8.81,8.47-15.62,17.36-16.6v-6.03l6.92,6.46,4.54,4.23-6.7,6.27Z"
          fill="#fff" stroke="#fff" stroke-miterlimit="10"/>
</svg>
