<?xml version="1.0" encoding="utf-8"?>
<!-- Generator: Adobe Illustrator 27.7.0, SVG Export Plug-In . SVG Version: 6.00 Build 0)  -->
<svg version="1.1" id="Layer_2" xmlns="http://www.w3.org/2000/svg" xmlns:xlink="http://www.w3.org/1999/xlink" x="0px" y="0px"
	 viewBox="0 0 100 100" style="enable-background:new 0 0 100 100;" xml:space="preserve">
<style type="text/css">
	.st0{fill:none;stroke:#FFFFFF;stroke-width:3;stroke-miterlimit:10;}
	.st1{fill:none;stroke:#FFFFFF;stroke-width:3;stroke-linecap:round;stroke-miterlimit:10;}
</style>
<path class="st0" d="M18.4,80.7h59.2c0.8,0,1.4-0.6,1.4-1.4V14.8c0-1.3-1.6-1.9-2.4-1L17.3,78.3C16.5,79.2,17.2,80.7,18.4,80.7z"/>
<path class="st0" d="M48.4,68.4h18.8c0.2,0,0.4-0.2,0.4-0.4V47.5c0-0.4-0.5-0.6-0.8-0.3L48.1,67.7C47.8,67.9,48,68.4,48.4,68.4z"/>
<line class="st1" x1="46.1" y1="47" x2="49.9" y2="50.8"/>
<line class="st1" x1="53.9" y1="39.6" x2="57.7" y2="43.4"/>
<line class="st1" x1="62" y1="32.5" x2="65.8" y2="36.3"/>
<line class="st1" x1="30.7" y1="63.3" x2="34.5" y2="67.1"/>
<line class="st1" x1="38.8" y1="56.1" x2="42.6" y2="59.9"/>
</svg>
